<svg width="158" height="51" viewBox="0 0 158 51" fill="none" xmlns="http://www.w3.org/2000/svg">
<path d="M132.018 11.7801H126.079L134.042 25.243L117.103 51H123.581L139.035 27.8782L145.583 38.4868H151.792L143.759 25.3161L158 0H151.792L139.103 22.9026L132.018 11.7801Z" fill="url(#paint0_linear_2_96)"/>
<path d="M10.3119 1.52588e-05C7.83032 1.52588e-05 5.85764 0.503871 4.38684 1.5141C2.91836 2.5218 2.18412 3.83182 2.18412 5.43911C2.18412 6.87257 2.75107 8.11457 3.88263 9.1651C5.0142 10.2182 6.38973 10.9336 8.00691 11.314V11.576H0V16.0931H4.04295V33.9396H8.8155V16.0931H15.2866V11.576H13.4672C12.4147 11.5181 11.3853 11.2636 10.3746 10.8077C9.36385 10.3542 8.53435 9.78485 7.88841 9.09709C7.24014 8.41185 6.91717 7.70141 6.91717 6.97083C6.91717 6.06641 7.34935 5.43659 8.21138 5.08641C9.07341 4.73623 10.0725 4.55989 11.2041 4.55989C12.6865 4.59012 14.5058 4.85212 16.6644 5.34842V0.876722C15.6932 0.614719 14.615 0.400576 13.43 0.241863C12.2427 0.0806296 11.2064 1.52588e-05 10.3165 1.52588e-05H10.3119Z" fill="white"/>
<path d="M33.8072 22.4038V23.807C33.8072 24.976 33.5702 26.0643 33.0985 27.0745C32.6268 28.0822 31.953 28.8708 31.077 29.4426C30.2011 30.012 29.1973 30.2966 28.0634 30.2966C26.4997 30.2966 25.2659 29.7928 24.3643 28.7826C23.4605 27.7749 23.0097 26.349 23.0097 24.5074V11.5735H18.279V25.3413C18.279 28.2636 18.9993 30.5738 20.4422 32.2692C21.8851 33.9647 23.8044 34.8137 26.2046 34.8137C27.8217 34.8137 29.2507 34.4333 30.4915 33.6725C31.7323 32.9142 32.6965 31.8384 33.382 30.4503C33.5469 30.1178 33.6887 29.7752 33.8142 29.4199H34.0512L34.7389 33.937H38.5402V11.576H33.8095V22.4063L33.8072 22.4038Z" fill="white"/>
<path d="M46.9491 11.3115C48.1341 10.8732 49.0241 10.0771 49.6189 8.92325C50.2114 7.76943 50.5088 6.38887 50.5088 4.77906V2.36812H45.7363V5.26276C45.7363 7.0464 45.5876 8.36901 45.2925 9.2306C44.995 10.0922 44.4165 10.7422 43.5545 11.1805C43.0433 11.4425 42.395 11.576 41.6143 11.576H41.2913V16.0931H45.7386V29.0723C45.7386 30.6519 46.1289 31.8561 46.912 32.69C47.6927 33.5239 48.8126 33.9396 50.2695 33.9396H56.9822V29.4225H50.5111V16.0931H56.9822V11.576H46.9538V11.314L46.9491 11.3115Z" fill="white"/>
<path d="M75.5406 22.4038V23.807C75.5406 24.976 75.3036 26.0643 74.8319 27.0745C74.3602 28.0822 73.6864 28.8708 72.8104 29.4426C71.9344 30.012 70.9307 30.2966 69.7968 30.2966C68.233 30.2966 66.9992 29.7928 66.0977 28.7826C65.1939 27.7749 64.7431 26.349 64.7431 24.5074V11.5735H60.0124V25.3413C60.0124 28.2636 60.7327 30.5738 62.1756 32.2692C63.6185 33.9647 65.5377 34.8137 67.938 34.8137C69.5551 34.8137 70.9841 34.4333 72.2249 33.6725C73.4656 32.9142 74.4299 31.8384 75.1154 30.4503C75.2803 30.1178 75.4221 29.7752 75.5475 29.4199H75.7845L76.4723 33.937H80.2736V11.576H75.5429V22.4063L75.5406 22.4038Z" fill="white"/>
<path d="M92.4019 11.9464C91.2424 12.7802 90.3595 13.8988 89.7531 15.2995C89.6369 15.5665 89.5439 15.8437 89.4487 16.1208V16.088H89.207L88.5192 11.571H84.7179V33.932H89.4487V22.8825C89.4487 21.4213 89.7577 20.1063 90.3781 18.9373C90.9985 17.7684 91.8396 16.8539 92.9061 16.1964C93.9703 15.5388 95.1762 15.2088 96.5262 15.2088C97.4161 15.2088 98.1155 15.2668 98.629 15.3852V10.9135C97.9551 10.7673 97.2534 10.6943 96.5262 10.6943C94.9345 10.6943 93.559 11.11 92.4019 11.9438V11.9464Z" fill="white"/>
<path d="M122.653 22.8875C122.653 20.4917 122.195 18.3705 121.277 16.5289C120.36 14.6873 119.079 13.2564 117.437 12.231C115.792 11.2082 113.919 10.6968 111.816 10.6968C109.713 10.6968 107.838 11.2082 106.195 12.231C104.55 13.2538 103.256 14.6798 102.313 16.5062C101.369 18.3327 100.898 20.4161 100.898 22.754C100.898 25.0919 101.409 27.2988 102.434 29.1101C103.458 30.9215 104.927 32.3272 106.841 33.3198C108.756 34.3124 110.966 34.8112 113.473 34.8112C115.115 34.8112 116.679 34.5618 118.164 34.0655C119.646 33.5692 120.899 32.8966 121.923 32.0476V27.8379H121.884C120.752 28.6869 119.444 29.352 117.962 29.8331C116.479 30.3143 115.023 30.5562 113.596 30.5562C112.169 30.5562 110.784 30.2866 109.613 29.745C108.44 29.2033 107.515 28.4375 106.844 27.4424C106.17 26.4472 105.805 25.3085 105.752 24.0212H122.655V22.8825L122.653 22.8875ZM106.456 18.5015C106.955 17.3602 107.662 16.4835 108.579 15.8714C109.495 15.2567 110.547 14.9493 111.732 14.9493C112.999 14.9493 114.098 15.2718 115.027 15.9142C115.957 16.5566 116.672 17.4434 117.172 18.567C117.427 19.1464 117.613 19.7687 117.729 20.4312H105.882C106.007 19.741 106.195 19.096 106.456 18.5015Z" fill="white"/>
<path d="M24.2386 44.6081H24.6708L26.5157 50.415H26.0835L24.2386 44.6081ZM26.3646 50.415L28.1352 44.6081H28.5674L26.7968 50.415H26.3646ZM28.3373 44.6081H28.7695L30.6144 50.415H30.1822L28.3373 44.6081ZM30.4634 50.415L32.2339 44.6081H32.6661L30.8955 50.415H30.4634Z" fill="white"/>
<path d="M32.7405 48.3593C32.7405 47.9285 32.8218 47.5455 32.9821 47.2105C33.1425 46.8754 33.3655 46.6109 33.6513 46.4245C33.9371 46.2355 34.2554 46.1423 34.6063 46.1423C34.9572 46.1423 35.2964 46.2355 35.5775 46.4245C35.8587 46.6134 36.0748 46.8754 36.2281 47.2105C36.3815 47.5455 36.4582 47.9285 36.4582 48.3593V48.4651H33.1634C33.1634 48.7926 33.2354 49.0873 33.3795 49.3443C33.5235 49.6038 33.7234 49.8053 33.9813 49.954C34.2392 50.1026 34.5319 50.1757 34.8596 50.1757C35.1082 50.1757 35.3591 50.1303 35.6101 50.0371C35.8633 49.9464 36.091 49.8179 36.2932 49.6517H36.3002V50.0698C36.1027 50.2361 35.8819 50.3621 35.6379 50.4503C35.394 50.5359 35.1337 50.5787 34.8572 50.5787C34.4367 50.5787 34.0649 50.4855 33.7443 50.2991C33.4236 50.1127 33.1773 49.8532 33.0007 49.5206C32.8241 49.1881 32.7359 48.8001 32.7359 48.3593H32.7405ZM33.024 48.0595H36.342L36.0446 48.2938C36.0492 47.9612 35.9911 47.6614 35.8703 47.3944C35.7495 47.1273 35.5799 46.9208 35.3614 46.7696C35.143 46.6185 34.8921 46.5429 34.6109 46.5429C34.3437 46.5429 34.0974 46.6185 33.8744 46.7696C33.6513 46.9208 33.4771 47.1273 33.3493 47.3944C33.2238 47.6589 33.1611 47.9637 33.168 48.3013L33.0263 48.0595H33.024Z" fill="white"/>
<path d="M39.2863 47.4725C39.2863 46.8754 39.4095 46.3413 39.6558 45.8702C39.902 45.3991 40.2436 45.0313 40.6828 44.7643C41.1219 44.4997 41.6145 44.3637 42.1582 44.3637C42.53 44.3637 42.8646 44.4116 43.1596 44.5098C43.4547 44.6081 43.7359 44.7441 44.0031 44.9205V45.3487L43.9961 45.3563C43.7289 45.1674 43.4524 45.0238 43.1713 44.9205C42.8878 44.8172 42.5509 44.7668 42.1605 44.7668C41.6888 44.7668 41.2683 44.8827 40.8965 45.1145C40.5248 45.3462 40.232 45.6662 40.0182 46.0793C39.8045 46.4925 39.6976 46.9535 39.6976 47.47C39.6976 47.9864 39.8021 48.45 40.0136 48.8606C40.225 49.2712 40.5178 49.5937 40.8919 49.8255C41.266 50.0573 41.6888 50.1731 42.1605 50.1731C42.5532 50.1731 42.8901 50.1227 43.1713 50.0195C43.4547 49.9187 43.7289 49.7726 43.9961 49.5836L44.0031 49.5912V50.0195C43.7359 50.1958 43.4547 50.3344 43.1596 50.4301C42.8646 50.5283 42.53 50.5762 42.1582 50.5762C41.6122 50.5762 41.1196 50.4427 40.6828 50.1756C40.2436 49.9086 39.902 49.5408 39.6558 49.0697C39.4095 48.5986 39.2863 48.0645 39.2863 47.4674V47.4725Z" fill="white"/>
<path d="M46.5704 50.5762C46.2125 50.5762 45.8942 50.483 45.6107 50.294C45.3273 50.1051 45.1065 49.8431 44.9485 49.503C44.7905 49.1629 44.7115 48.7825 44.7115 48.3567C44.7115 47.931 44.7905 47.5506 44.9485 47.213C45.1065 46.8729 45.3273 46.6109 45.6107 46.4219C45.8942 46.233 46.2125 46.1398 46.5704 46.1398C46.9282 46.1398 47.2465 46.233 47.53 46.4219C47.8135 46.6109 48.0342 46.8729 48.1922 47.213C48.3502 47.5531 48.4292 47.9335 48.4292 48.3567C48.4292 48.78 48.3502 49.1629 48.1922 49.503C48.0342 49.8431 47.8135 50.1051 47.53 50.294C47.2465 50.483 46.9282 50.5762 46.5704 50.5762ZM46.5704 50.1731C46.8422 50.1731 47.0908 50.095 47.3092 49.9363C47.53 49.7776 47.7042 49.5609 47.8297 49.2863C47.9552 49.0117 48.0202 48.7019 48.0202 48.3592C48.0202 48.0166 47.9575 47.7068 47.8297 47.4322C47.7042 47.1576 47.53 46.9409 47.3092 46.7822C47.0885 46.6235 46.8422 46.5454 46.5704 46.5454C46.2985 46.5454 46.0499 46.626 45.8291 46.7822C45.6084 46.9409 45.4341 47.1576 45.3087 47.4322C45.1832 47.7068 45.1181 48.0166 45.1181 48.3592C45.1181 48.7019 45.1809 49.0143 45.3087 49.2914C45.4341 49.5685 45.6084 49.7851 45.8291 49.9413C46.0499 50.0975 46.2962 50.1756 46.5704 50.1756V50.1731Z" fill="white"/>
<path d="M50.9593 50.5762C50.5969 50.5762 50.2739 50.483 49.9928 50.294C49.7093 50.1051 49.4909 49.8431 49.3352 49.508C49.1795 49.173 49.1005 48.79 49.1005 48.3592C49.1005 47.9285 49.1795 47.5455 49.3352 47.2105C49.4909 46.8754 49.7116 46.6109 49.9928 46.4245C50.2762 46.2355 50.5969 46.1423 50.9593 46.1423C51.287 46.1423 51.5844 46.2355 51.8516 46.4245C52.1188 46.6134 52.3279 46.8754 52.4813 47.2105C52.6323 47.5455 52.709 47.9285 52.709 48.3592C52.709 48.79 52.6323 49.173 52.4813 49.508C52.3302 49.8431 52.1211 50.1076 51.8516 50.294C51.5844 50.483 51.287 50.5762 50.9593 50.5762ZM50.9965 50.1731C51.2684 50.1731 51.5193 50.095 51.747 49.9363C51.9747 49.7776 52.156 49.5584 52.2861 49.2813C52.4185 49.0042 52.4836 48.6968 52.4836 48.3567C52.4836 48.0166 52.4185 47.7093 52.2861 47.4322C52.1536 47.155 51.9747 46.9384 51.747 46.7797C51.5193 46.6209 51.2684 46.5428 50.9965 46.5428C50.7247 46.5428 50.4668 46.6235 50.2414 46.7797C50.016 46.9384 49.8371 47.1576 49.7046 47.4322C49.5722 47.7093 49.5071 48.0166 49.5071 48.3567C49.5071 48.6968 49.5722 49.0042 49.7046 49.2813C49.8348 49.5584 50.0137 49.7751 50.2414 49.9363C50.4668 50.095 50.7177 50.1731 50.9965 50.1731ZM52.9297 50.415H52.6323L52.551 49.3896H52.5208V44.6081H52.9297V50.415Z" fill="white"/>
<path d="M53.7851 48.3593C53.7851 47.9285 53.8664 47.5455 54.0267 47.2105C54.187 46.8754 54.4101 46.6109 54.6959 46.4245C54.9817 46.2355 55.3 46.1423 55.6509 46.1423C56.0017 46.1423 56.341 46.2355 56.6221 46.4245C56.9033 46.6134 57.1194 46.8754 57.2727 47.2105C57.4261 47.5455 57.5027 47.9285 57.5027 48.3593V48.4651H54.208C54.208 48.7926 54.28 49.0873 54.4241 49.3443C54.5681 49.6038 54.7679 49.8053 55.0258 49.954C55.2838 50.1026 55.5765 50.1757 55.9041 50.1757C56.1528 50.1757 56.4037 50.1303 56.6546 50.0371C56.9079 49.9464 57.1356 49.8179 57.3378 49.6517H57.3447V50.0698C57.1472 50.2361 56.9265 50.3621 56.6825 50.4503C56.4386 50.5359 56.1783 50.5787 55.9018 50.5787C55.4813 50.5787 55.1095 50.4855 54.7888 50.2991C54.4682 50.1127 54.2219 49.8532 54.0453 49.5206C53.8687 49.1881 53.7804 48.8001 53.7804 48.3593H53.7851ZM54.0686 48.0595H57.3866L57.0892 48.2938C57.0938 47.9612 57.0357 47.6614 56.9149 47.3944C56.7941 47.1273 56.6244 46.9208 56.406 46.7696C56.1876 46.6185 55.9367 46.5429 55.6555 46.5429C55.3883 46.5429 55.142 46.6185 54.919 46.7696C54.6959 46.9208 54.5216 47.1273 54.3938 47.3944C54.2684 47.6589 54.2056 47.9637 54.2126 48.3013L54.0709 48.0595H54.0686Z" fill="white"/>
<path d="M64.4755 44.608V45.4394H60.0724V44.608H64.4755ZM62.7119 44.608V50.4149H61.8406V44.608H62.7119Z" fill="white"/>
<path d="M65.9919 50.5762C65.6202 50.5762 65.2833 50.4805 64.9835 50.289C64.6838 50.0975 64.4491 49.833 64.2795 49.4954C64.1099 49.1579 64.0262 48.7774 64.0262 48.3567C64.0262 47.936 64.1099 47.5581 64.2795 47.2205C64.4491 46.8804 64.6815 46.6159 64.9835 46.427C65.2833 46.2355 65.6202 46.1398 65.9919 46.1398C66.3637 46.1398 66.6983 46.2355 66.9957 46.427C67.2931 46.6184 67.5278 46.8829 67.6997 47.2205C67.8717 47.5606 67.9577 47.9385 67.9577 48.3567C67.9577 48.7749 67.8717 49.1553 67.6997 49.4954C67.5278 49.8355 67.2954 50.1 66.9957 50.289C66.6983 50.4805 66.3637 50.5762 65.9919 50.5762ZM65.9919 49.77C66.2011 49.77 66.3869 49.7096 66.5542 49.5886C66.7215 49.4677 66.8516 49.3015 66.9446 49.0873C67.0375 48.8757 67.0863 48.6313 67.0863 48.3567C67.0863 48.0821 67.0399 47.8453 66.9446 47.6312C66.8493 47.417 66.7192 47.2482 66.5542 47.1273C66.3893 47.0064 66.2011 46.9459 65.9919 46.9459C65.7828 46.9459 65.5946 47.0064 65.4273 47.1273C65.26 47.2482 65.1276 47.4145 65.037 47.6286C64.9463 47.8403 64.8999 48.0846 64.8999 48.3592C64.8999 48.6338 64.9463 48.8707 65.037 49.0848C65.1299 49.2989 65.26 49.4677 65.4273 49.5886C65.5946 49.7096 65.7851 49.77 65.9919 49.77Z" fill="white"/>
<path d="M69.3479 46.301L69.4734 47.1324H69.5175V50.415H68.6462V46.301H69.3456H69.3479ZM69.4083 47.8352C69.4083 47.5279 69.4641 47.2457 69.5756 46.9888C69.6871 46.7293 69.8451 46.5252 70.0519 46.3715C70.2587 46.2179 70.498 46.1423 70.7699 46.1423C71.1858 46.1423 71.5204 46.296 71.7737 46.6058C72.0269 46.9157 72.1524 47.3389 72.1524 47.8755V50.4175H71.2811V48.0947C71.2811 47.8579 71.2532 47.6564 71.1951 47.4901C71.137 47.3238 71.0534 47.1953 70.9395 47.1072C70.8257 47.019 70.6862 46.9736 70.5236 46.9736C70.3354 46.9736 70.1634 47.0366 70.0078 47.1626C69.8521 47.2886 69.7313 47.4573 69.6476 47.6664C69.564 47.8755 69.5221 48.0998 69.5221 48.3366V48.3441H69.4106V47.8352H69.4083ZM71.9967 47.8907C71.9967 47.548 72.0571 47.2407 72.1756 46.9762C72.2941 46.7091 72.4591 46.5025 72.6659 46.3589C72.875 46.2128 73.1143 46.1398 73.3885 46.1398C73.6627 46.1398 73.9113 46.2103 74.1204 46.3489C74.3319 46.4874 74.4945 46.689 74.6107 46.9484C74.7269 47.2104 74.785 47.5178 74.785 47.873V50.415H73.9136V48.0519C73.9136 47.7017 73.8486 47.4347 73.7208 47.2482C73.5907 47.0618 73.4048 46.9686 73.1631 46.9686C72.9656 46.9686 72.789 47.0265 72.6357 47.1424C72.4823 47.2583 72.3638 47.4221 72.2779 47.6337C72.1942 47.8453 72.1524 48.0897 72.1524 48.3643V48.4298H71.9967V47.8881V47.8907Z" fill="white"/>
<path d="M77.457 50.5762C77.0852 50.5762 76.7483 50.4805 76.4486 50.289C76.1489 50.0975 75.9142 49.833 75.7446 49.4954C75.5749 49.1579 75.4913 48.7774 75.4913 48.3567C75.4913 47.936 75.5749 47.5581 75.7446 47.2205C75.9142 46.8829 76.1465 46.6159 76.4486 46.427C76.7483 46.2355 77.0852 46.1398 77.457 46.1398C77.8288 46.1398 78.1634 46.2355 78.4608 46.427C78.7582 46.6184 78.9929 46.8829 79.1648 47.2205C79.3368 47.5606 79.4227 47.9385 79.4227 48.3567C79.4227 48.7749 79.3368 49.1553 79.1648 49.4954C78.9929 49.8355 78.7605 50.1 78.4608 50.289C78.161 50.4779 77.8288 50.5762 77.457 50.5762ZM77.457 49.77C77.6661 49.77 77.852 49.7096 78.0193 49.5886C78.1866 49.4677 78.3167 49.3015 78.4097 49.0873C78.5026 48.8757 78.5514 48.6313 78.5514 48.3567C78.5514 48.0821 78.5049 47.8453 78.4097 47.6312C78.3144 47.417 78.1843 47.2482 78.0193 47.1273C77.8543 47.0064 77.6661 46.9459 77.457 46.9459C77.2479 46.9459 77.0597 47.0064 76.8924 47.1273C76.7251 47.2482 76.5927 47.4145 76.502 47.6286C76.4114 47.8403 76.3649 48.0846 76.3649 48.3592C76.3649 48.6338 76.4114 48.8707 76.502 49.0848C76.595 49.2989 76.7251 49.4677 76.8924 49.5886C77.0597 49.7096 77.2502 49.77 77.457 49.77Z" fill="white"/>
<path d="M80.8122 46.301L80.9376 47.1324H80.9818V50.415H80.1105V46.301H80.8098H80.8122ZM82.671 47.0039C82.5757 46.9837 82.4479 46.9711 82.283 46.9711C82.0344 46.9711 81.8136 47.0316 81.6161 47.1525C81.4186 47.2734 81.2653 47.4422 81.1514 47.6564C81.0376 47.8705 80.9795 48.1123 80.9795 48.3819V48.4298H80.8679V47.8327C80.8679 47.5254 80.9237 47.2432 81.0352 46.9862C81.1468 46.7268 81.3094 46.5227 81.5232 46.369C81.7369 46.2153 81.9902 46.1398 82.283 46.1398C82.4177 46.1398 82.5455 46.1524 82.671 46.1801V47.0039Z" fill="white"/>
<path d="M84.0048 46.301L84.1303 47.1324H84.1744V50.415H83.3031V46.301H84.0025H84.0048ZM85.8636 47.0039C85.7683 46.9837 85.6405 46.9711 85.4756 46.9711C85.227 46.9711 85.0062 47.0316 84.8087 47.1525C84.6112 47.2734 84.4579 47.4422 84.344 47.6564C84.2302 47.8705 84.1721 48.1123 84.1721 48.3819V48.4298H84.0605V47.8327C84.0605 47.5254 84.1163 47.2432 84.2278 46.9862C84.3394 46.7268 84.502 46.5227 84.7158 46.369C84.9295 46.2153 85.1828 46.1398 85.4756 46.1398C85.6103 46.1398 85.7381 46.1524 85.8636 46.1801V47.0039Z" fill="white"/>
<path d="M88.2427 50.5762C87.871 50.5762 87.534 50.4805 87.2343 50.289C86.9346 50.0975 86.6999 49.833 86.5303 49.4954C86.3606 49.1579 86.277 48.7774 86.277 48.3567C86.277 47.936 86.3606 47.5581 86.5303 47.2205C86.6999 46.8804 86.9322 46.6159 87.2343 46.427C87.534 46.2355 87.871 46.1398 88.2427 46.1398C88.6145 46.1398 88.9491 46.2355 89.2465 46.427C89.5439 46.6184 89.7786 46.8829 89.9505 47.2205C90.1225 47.5606 90.2084 47.9385 90.2084 48.3567C90.2084 48.7749 90.1225 49.1553 89.9505 49.4954C89.7786 49.8355 89.5462 50.1 89.2465 50.289C88.9467 50.4779 88.6145 50.5762 88.2427 50.5762ZM88.2427 49.77C88.4518 49.77 88.6377 49.7096 88.805 49.5886C88.9723 49.4677 89.1024 49.3015 89.1954 49.0873C89.2883 48.8757 89.3371 48.6313 89.3371 48.3567C89.3371 48.0821 89.2906 47.8453 89.1954 47.6312C89.1001 47.417 88.97 47.2482 88.805 47.1273C88.64 47.0064 88.4518 46.9459 88.2427 46.9459C88.0336 46.9459 87.8454 47.0064 87.6781 47.1273C87.5108 47.2482 87.3784 47.4145 87.2877 47.6286C87.1971 47.8403 87.1507 48.0846 87.1507 48.3592C87.1507 48.6338 87.1971 48.8707 87.2877 49.0848C87.3807 49.2989 87.5108 49.4677 87.6781 49.5886C87.8454 49.7096 88.0359 49.77 88.2427 49.77Z" fill="white"/>
<path d="M91.4356 46.301L93.0505 50.4149H92.1048L90.4899 46.301H91.4356ZM93.3618 50.4149H92.4394L93.8312 46.301H94.7536L93.3618 50.4149ZM95.0882 46.301L96.7031 50.4149H95.7574L94.1425 46.301H95.0882ZM97.0214 50.4149H96.092L97.4838 46.301H98.4132L97.0214 50.4149Z" fill="white"/>
<defs>
<linearGradient id="paint0_linear_2_96" x1="117.103" y1="25.5" x2="158" y2="25.5" gradientUnits="userSpaceOnUse">
<stop stop-color="#00F4FD"/>
<stop offset="0.25" stop-color="#0687F9"/>
<stop offset="0.64" stop-color="#1A4FF9"/>
<stop offset="1" stop-color="#2253F7"/>
</linearGradient>
</defs>
</svg>
